#!OML:ASF \\sashay\E\Suitcase\Project 1\Capture day 1\Session 1\Male1.ASF
:FULLY-SPECIFIED
:DEGREES
1252
root -2.15525 17.5108 10.3746 8.73569 2.436 -2.84814
lowerback 4.76788 -3.74592 4.85568
upperback -1.20947 -4.51683 4.6315
thorax -3.92932 -2.30141 2.4553
lowerneck -12.5307 -1.74037 -9.79044
upperneck 9.67576 -0.944696 2.79068
head 5.02499 -0.642392 2.37738
rclavicle 3.18055e-015 -5.56597e-015
rhumerus -44.4543 -33.4882 -50.29
rradius 11.7065
rwrist 10.3082
rhand -10.7616 18.1325
rfingers 7.12502
rthumb 15.2501 -11.2854
lclavicle 3.18055e-015 -5.56597e-015
lhumerus -38.8789 -6.90055 90.8074
lradius 38.077
lwrist -2.10319
lhand 0.979693 44.7526
lfingers 7.12502
lthumb 26.5284 72.9151
rfemur -6.5784 -0.319143 27.7628
rtibia 12.6608
rfoot -12.6306 -18.2291
rtoes 16.7317
lfemur -8.81448 -6.46547 -6.07806
ltibia 15.7958
lfoot -11.8016 9.61317
ltoes -5.53765
1253
root -2.16962 17.5046 10.3827 8.70966 2.31337 -2.88241
lowerback 4.82905 -3.70506 4.70577
upperback -1.12819 -4.46915 4.72327
thorax -3.86014 -2.27265 2.62886
lowerneck -12.2712 -1.68978 -10.0743
upperneck 9.13268 -0.885082 3.02258
head 4.81118 -0.596016 2.4986
rclavicle 1.11319e-014 8.74653e-015
rhumerus -45.0316 -34.1788 -49.2453
rradius 11.3366
rwrist 11.1681
rhand -11.0455 18.219
rfingers 7.12502
rthumb 14.9767 -11.2195
lclavicle 1.11319e-014 8.74653e-015
lhumerus -38.7109 -6.98416 90.9113
lradius 37.9275
lwrist -1.98432
lhand 0.261164 44.4806
lfingers 7.12502
lthumb 25.8405 72.7451
rfemur -6.44255 0.17276 27.8677
rtibia 12.5478
rfoot -12.6523 -18.5215
rtoes 16.8891
lfemur -8.79836 -6.37066 -5.99907
ltibia 15.9048
lfoot -11.8014 9.66597
ltoes -4.67218
1254
root -2.16276 17.5085 10.4022 8.71811 2.32853 -2.65182
lowerback 4.68982 -3.74449 4.6163
upperback -1.08736 -4.54192 4.70502
thorax -3.73273 -2.30636 2.652
lowerneck -12.1145 -1.68939 -10.2433
upperneck 8.96221 -0.912752 3.36187
head 4.73591 -0.590308 2.63
rclavicle 2.88238e-014 3.18055e-015
rhumerus -45.4239 -34.0069 -48.8212
rradius 11.3315
rwrist 11.2593
rhand -11.0735 18.5465
rfingers 7.12502
rthumb 14.9497 -10.894
lclavicle 2.88238e-014 3.18055e-015
lhumerus -38.8199 -6.95023 90.9522
lradius 38.1369
lwrist -2.16909
lhand 0.554201 44.7633
lfingers 7.12502
lthumb 26.1211 72.9867
rfemur -6.35655 -0.0738226 27.5778
rtibia 12.5369
rfoot -12.5538 -18.4221
rtoes 16.4372
lfemur -8.7043 -6.45963 -6.3096
ltibia 15.9014
lfoot -11.7485 9.72775
ltoes -5.00384
1255
root -2.15697 17.5091 10.4058 8.8334 2.38038 -2.76218
lowerback 4.60474 -3.78319 4.86894
upperback -1.00476 -4.58834 4.7433
thorax -3.61577 -2.33286 2.54561
lowerneck -12.0913 -1.61737 -9.91586
upperneck 8.60315 -0.834096 3.00268
head 4.61238 -0.554671 2.4687
rclavicle 1.5704e-014 -2.78299e-014
rhumerus -45.964 -34.8023 -47.8246
rradius 11.1287
rwrist 12.094
rhand -10.7177 18.2812
rfingers 7.12502
rthumb 15.2924 -11.1335
lclavicle 1.5704e-014 -2.78299e-014
lhumerus -38.8146 -6.92377 90.8636
lradius 38.487
lwrist -2.08256
lhand 0.758568 44.8659
lfingers 7.12502
lthumb 26.3167 73.0602
rfemur -6.50629 -0.247516 27.6815
rtibia 12.6011
rfoot -12.823 -18.2753
rtoes 16.7129
lfemur -8.78886 -6.39279 -6.18886
ltibia 15.8555
lfoot -11.8573 9.6331
ltoes -4.58945
1256
root -2.16495 17.5066 10.4091 8.82804 2.28931 -2.83353
lowerback 4.65922 -3.74835 4.83787
upperback -0.914752 -4.54227 4.83046
thorax -3.54353 -2.30751 2.6485
lowerneck -11.9442 -1.5295 -9.83319
upperneck 8.53469 -0.733133 2.88402
head 4.55983 -0.508917 2.42566
rclavicle 6.0033e-014 -1.59028e-014
rhumerus -46.5535 -35.328 -46.9341
rradius 11.2427
rwrist 12.9098
rhand -10.4121 18.3764
rfingers 7.12502
rthumb 15.5868 -11.0156
lclavicle 6.0033e-014 -1.59028e-014
lhumerus -38.6181 -7.07498 90.917
lradius 38.6163
lwrist -1.79114
lhand 0.387611 44.882
lfingers 7.12502
lthumb 25.9616 73.1289
rfemur -6.49215 0.251703 27.7836
rtibia 12.5733
rfoot -12.7184 -18.6658
rtoes 16.2964
lfemur -8.71544 -6.22565 -6.08147
ltibia 15.8004
lfoot -11.8033 9.56447
ltoes -4.9196
1257
root -2.16362 17.507 10.4141 8.90571 2.41742 -2.74328
lowerback 4.52745 -3.78526 4.84977
upperback -0.843955 -4.60575 4.84573
thorax -3.3949 -2.33783 2.6486
lowerneck -12.0735 -1.41122 -10.0656
upperneck 8.55759 -0.54973 3.14027
head 4.57738 -0.410308 2.55704
rclavicle -2.82274e-014 2.38542e-014
rhumerus -46.806 -35.1153 -46.8603
rradius 11.4506
rwrist 12.5889
rhand -10.2442 17.3425
rfingers 7.12502
rthumb 15.7485 -12.0367
lclavicle -2.82274e-014 2.38542e-014
lhumerus -38.4881 -7.22524 90.985
lradius 38.822
lwrist -1.78044
lhand 0.187983 44.4154
lfingers 7.12502
lthumb 25.7704 72.6902
rfemur -6.48504 0.228388 27.7168
rtibia 12.4913
rfoot -12.8182 -18.8027
rtoes 16.6823
lfemur -8.86085 -6.19359 -6.15606
ltibia 15.8799
lfoot -11.8556 9.38641
ltoes -5.54247
1258
root -2.16631 17.5025 10.4235 8.88566 2.30451 -2.82922
lowerback 4.4466 -3.77663 4.97831
upperback -0.711066 -4.6022 4.84399
thorax -3.22175 -2.33623 2.56232
lowerneck -12.14 -1.23821 -10.0299
upperneck 8.48064 -0.322707 3.19511
head 4.54889 -0.291768 2.58501
rclavicle -2.18663e-014 -1.51076e-014
rhumerus -47.2767 -35.3362 -46.3566
rradius 11.3975
rwrist 12.8348
rhand -10.3525 18.3135
rfingers 7.12502
rthumb 15.6442 -11.0739
lclavicle -2.18663e-014 -1.51076e-014
lhumerus -38.3916 -6.82875 90.7322
lradius 39.0502
lwrist -2.26922
lhand 0.688191 44.5526
lfingers 7.12502
lthumb 26.2494 72.757
rfemur -6.44256 0.502212 27.8145
rtibia 12.491
rfoot -12.7419 -18.9674
rtoes 16.34
lfemur -8.76374 -6.2142 -6.05353
ltibia 15.8359
lfoot -11.8034 9.51604
ltoes -5.01192
1259
root -2.16872 17.4996 10.4323 8.97851 2.35357 -3.01471
lowerback 4.26304 -3.78678 5.21828
upperback -0.62322 -4.62257 4.88728
thorax -3.04302 -2.34788 2.45812
lowerneck -12.4715 -1.45269 -9.80729
upperneck 8.4217 -0.588262 2.97637
head 4.60141 -0.425258 2.46036
rclavicle 7.11649e-014 -4.77083e-015
rhumerus -47.2684 -35.0062 -46.5907
rradius 11.3559
rwrist 12.2391
rhand -10.5038 18.0826
rfingers 7.12502
rthumb 15.4985 -11.3162
lclavicle 7.11649e-014 -4.77083e-015
lhumerus -38.1818 -7.17285 90.7582
lradius 39.1171
lwrist -1.58196
lhand 0.242349 44.6699
lfingers 7.12502
lthumb 25.8225 72.9371
rfemur -6.36919 0.622916 28.0431
rtibia 12.2632
rfoot -12.749 -19.104
rtoes 16.3968
lfemur -8.92476 -6.01608 -5.8026
ltibia 15.9521
lfoot -11.8372 9.24058
ltoes -6.54796
1260
root -2.16407 17.5022 10.4408 8.97857 2.29639 -2.80085
lowerback 4.21451 -3.82066 5.13577
upperback -0.497211 -4.68697 4.80807
thorax -2.88455 -2.37687 2.41534
lowerneck -12.564 -1.57495 -9.88122
upperneck 8.22474 -0.740931 3.07544
head 4.56573 -0.49106 2.49063
rclavicle -1.63003e-014 -2.14687e-014
rhumerus -47.1157 -34.8666 -46.7093
rradius 11.1523
rwrist 11.8348
rhand -10.5239 18.1385
rfingers 7.12502
rthumb 15.4791 -11.2619
lclavicle -1.63003e-014 -2.14687e-014
lhumerus -37.9899 -7.38432 90.7178
lradius 39.201
lwrist -1.48599
lhand 0.394905 44.7355
lfingers 7.12502
lthumb 25.9686 72.9813
rfemur -6.34715 0.477885 27.7704
rtibia 12.2411
rfoot -12.7251 -18.9815
rtoes 16.5416
lfemur -8.84851 -6.13391 -6.06367
ltibia 15.9398
lfoot -11.9135 9.32214
ltoes -5.70489
1261
root -2.16927 17.4962 10.4427 8.8118 2.26309 -3.45325
lowerback 4.37109 -3.85013 5.74058
upperback -0.327461 -4.68562 4.97772
thorax -2.83159 -2.38105 2.2632
lowerneck -12.7425 -1.65501 -9.78553
upperneck 8.09197 -0.837458 2.99709
head 4.55911 -0.536076 2.44244
rclavicle 4.25399e-014 2.06736e-014
rhumerus -46.813 -34.0282 -47.5331
rradius 11.2594
rwrist 10.7473
rhand -10.5866 18.0529
rfingers 7.12502
rthumb 15.4187 -11.352
lclavicle 4.25399e-014 2.06736e-014
lhumerus -37.7808 -7.22727 90.5495
lradius 39.4024
lwrist -1.29973
lhand 0.865086 45.3692
lfingers 7.12502
lthumb 26.4187 73.5482
rfemur -6.11191 0.794516 28.5068
rtibia 12.1483
rfoot -12.8083 -19.1447
rtoes 16.7078
lfemur -8.6789 -6.07266 -5.29781
ltibia 15.9551
lfoot -11.9231 9.25275
ltoes -5.41735
1262
root -2.17133 17.5037 10.4384 9.10749 2.06101 -2.82464
lowerback 4.23729 -3.7922 5.0998
upperback -0.335907 -4.65878 4.85558
thorax -2.72312 -2.35957 2.47525
lowerneck -12.0809 -1.28691 -9.79188
upperneck 7.37876 -0.431926 3.14983
head 4.20436 -0.314255 2.51856
rclavicle 2.84262e-014 3.97569e-014
rhumerus -47.0682 -34.4509 -46.934
rradius 11.1147
rwrist 11.1718
rhand -10.5818 17.7245
rfingers 7.12502
rthumb 15.4233 -11.6802
lclavicle 2.84262e-014 3.97569e-014
lhumerus -37.5884 -7.30314 90.5377
lradius 39.432
lwrist -1.75133
lhand 0.83226 44.9424
lfingers 7.12502
lthumb 26.3873 73.1262
rfemur -6.41097 1.19112 27.8161
rtibia 12.0687
rfoot -12.7262 -19.4231
rtoes 16.9689
lfemur -8.95589 -6.10952 -5.96019
ltibia 15.9396
lfoot -11.9154 9.24497
ltoes -5.43851
1263
root -2.1768 17.5037 10.4621 9.05774 1.94111 -2.95424
lowerback 4.01931 -3.78278 5.17264
upperback -0.191301 -4.67009 4.92609
thorax -2.4508 -2.36248 2.48452
lowerneck -12.1852 -1.07424 -9.38781
upperneck 7.35892 -0.180344 2.92329
head 4.19787 -0.19076 2.40102
rclavicle -8.5875e-014 6.75868e-014
rhumerus -47.039 -34.2592 -46.9746
rradius 11.1294
rwrist 11.103
rhand -10.5682 17.2251
rfingers 7.12502
rthumb 15.4364 -12.1785
lclavicle -8.5875e-014 6.75868e-014
lhumerus -37.5584 -7.44474 90.6246
lradius 39.7337
lwrist -1.12917
lhand 0.498105 44.8783
lfingers 7.12502
lthumb 26.0674 73.1096
rfemur -6.18404 1.24418 27.9535
rtibia 11.8858
rfoot -12.6804 -19.3995
rtoes 16.413
lfemur -8.80944 -6.05829 -5.81705
ltibia 16.0525
lfoot -11.9363 9.30317
ltoes -5.46656
